<?xml version="1.0" ?>
<svg id="Layer_1" style="enable-background:new 0 0 128 128;" version="1.1" viewBox="0 0 128 128"
	xml:space="preserve" xmlns="http://www.w3.org/2000/svg" xmlns:xlink="http://www.w3.org/1999/xlink">
	<style type="text/css">
		.st1 {
			fill: #FFFFFF;
		}

		.st2 {
			fill: none;
			stroke: #242C88;
			stroke-width: 2;
			stroke-linecap: round;
			stroke-linejoin: round;
			stroke-miterlimit: 10;
		}

		.st7 {
			fill: #589FFF;
		}

		.st57 {
			fill: none;
			stroke: #FFFFFF;
			stroke-width: 4;
			stroke-linecap: round;
			stroke-linejoin: round;
			stroke-miterlimit: 10;
		}

		.st58 {
			opacity: 0.4;
			fill: none;
			stroke: #FFFFFF;
			stroke-width: 8;
			stroke-linecap: round;
			stroke-linejoin: round;
			stroke-miterlimit: 10;
		}

		.st59 {
			opacity: 0.2;
			fill: none;
			stroke: #242C88;
			stroke-width: 8;
			stroke-linecap: round;
			stroke-linejoin: round;
			stroke-miterlimit: 10;
		}

		.st61 {
			fill: none;
			stroke: #242C88;
			stroke-width: 4;
			stroke-linecap: round;
			stroke-linejoin: round;
			stroke-miterlimit: 10;
		}
	</style>
	<circle class="st7" cx="64" cy="64" r="50" />
	<circle class="st2" cx="64" cy="64" r="50" />
	<path class="st58" d="M19,64c0-24.9,20.1-45,45-45" />
	<path class="st59" d="M109,64c0,24.9-20.1,45-45,45" />
	<circle class="st1" cx="64" cy="64" r="40" />
	<circle class="st2" cx="64" cy="64" r="40" />
	<line class="st61" x1="64" x2="64" y1="31" y2="32" />
	<line class="st61" x1="64" x2="64" y1="96" y2="97" />
	<line class="st61" x1="31" x2="32" y1="64" y2="64" />
	<line class="st61" x1="96" x2="97" y1="64" y2="64" />
	<line class="st2" x1="46.6" x2="48" y1="33.9" y2="36.3" />
	<line class="st2" x1="80" x2="81.4" y1="91.7" y2="94.2" />
	<line class="st2" x1="34" x2="36.3" y1="81.3" y2="80" />
	<line class="st2" x1="91.7" x2="93.9" y1="48" y2="46.7" />
	<line class="st2" x1="34.3" x2="36.3" y1="46.9" y2="48" />
	<line class="st2" x1="91.7" x2="94" y1="80" y2="81.3" />
	<line class="st2" x1="46.8" x2="48" y1="93.8" y2="91.7" />
	<line class="st2" x1="80" x2="81.3" y1="36.3" y2="34" />
</svg>