<?xml version="1.0" encoding="UTF-8"?>
<svg xmlns="http://www.w3.org/2000/svg" version="1.1" xmlns:xlink="http://www.w3.org/1999/xlink" viewBox="0 0 64 64">
    <defs>
        <style>
            .cls-1 {
                fill: #c9caca;
            }

            .cls-2 {
                fill: #dfe0e0;
            }

            .cls-3 {
                fill: #0baeff;
            }

            .cls-4 {
                fill: url(#line1);
            }

            .cls-5 {
                fill: #e0e1e1;
            }

            .cls-6 {
                fill: #efcc00;
            }

            .cls-7 {
                fill: url(#line2);
            }
        </style>
        <linearGradient id="line1" x1="-1511.3" y1="19.6" x2="-1532.4" y2="46.9"
            gradientTransform="translate(-1492 66) rotate(-180)" gradientUnits="userSpaceOnUse">
            <stop offset="0" stop-color="#f2f2f2" />
            <stop offset="1" stop-color="#cfcfcf" />
        </linearGradient>
        <linearGradient id="line2" x1="-1698.2" y1="194.7" x2="-1686.6" y2="177"
            gradientTransform="translate(-1636.3 -243.3) rotate(-164.4)" gradientUnits="userSpaceOnUse">
            <stop offset="0" stop-color="#fff" />
            <stop offset="1" stop-color="#fff" stop-opacity="0" />
        </linearGradient>
    </defs>
    <g>
        <path class="cls-4"
            d="M23.7,9.9c6.5,0,12.4,3.6,15.5,9.3,6.6-3.8,15-1.6,18.8,4.9,3.8,6.6,1.6,15-4.9,18.8-2.1,1.2-4.5,1.9-7,1.9h-22.4c-9.7,0-17.5-7.8-17.5-17.4S13.9,9.9,23.6,9.9h0Z" />
        <circle class="cls-7" cx="46.1" cy="31.1" r="13.8" />
        <polygon class="cls-6" points="39.1 36.3 37 48.6 41.3 48.6 39.1 57.7 49.2 44.9 44.5 44.9 48.7 36.3 39.1 36.3" />
        <path class="cls-3" d="M33.9,53.3c0,2.1-1.7,3.7-3.7,3.7s-3.7-1.7-3.7-3.7c0-3.3,3-6.3,3.7-6.3s3.7,3,3.7,6.3Z" />
        <circle class="cls-1" cx="20.4" cy="47.8" r="1.6" />
        <circle class="cls-5" cx="22.6" cy="51.6" r="1.6" />
        <circle class="cls-2" cx="20.4" cy="55.5" r="1.6" />
    </g>
</svg>