<?xml version="1.0" ?>
<svg viewBox="0 0 64 64" xmlns="http://www.w3.org/2000/svg" xmlns:xlink="http://www.w3.org/1999/xlink">
    <defs>
        <style>
            .cls-1,
            .cls-2 {
                fill: none;
                stroke-linecap: round;
                stroke-miterlimit: 10;
                stroke-width: 3px;
            }

            .cls-1 {
                stroke: #0baeff;
            }

            .cls-2 {
                stroke: #b9c1c6;
            }

            .cls-3 {
                fill: url(#linear-gradient);
            }

            .cls-4 {
                fill: url(#linear-gradient-2);
            }

            .cls-5 {
                fill: none;
                stroke: #9c9fa0;
                stroke-linecap: round;
                stroke-miterlimit: 10;
                stroke-width: 2px;
            }
        </style>
        <linearGradient gradientTransform="matrix(-1, 0, 0, 1, 509.97, 0)" gradientUnits="userSpaceOnUse"
            id="linear-gradient" x1="490.72" x2="469.63" y1="46.39" y2="19.08">
            <stop offset="0" stop-color="#f2f2f2" />
            <stop offset="1" stop-color="#cfcfcf" />
        </linearGradient>
        <linearGradient gradientTransform="matrix(0, -1, -1, 0, 208.91, 418.56)" gradientUnits="userSpaceOnUse"
            id="linear-gradient-2" x1="383.38" x2="394.99" y1="156.64" y2="174.29">
            <stop offset="0.02" stop-color="#fff" />
            <stop offset="1" stop-color="#fff" stop-opacity="0" />
        </linearGradient>
    </defs>
    <line class="cls-1" x1="32.5" x2="32.5" y1="50.5" y2="57.5" />
    <line class="cls-1" x1="26.5" x2="26.5" y1="48.5" y2="55.5" />
    <line class="cls-1" x1="38.5" x2="38.5" y1="48.5" y2="55.5" />
    <path class="cls-3"
        d="M23.66,9.9a17.49,17.49,0,0,1,15.47,9.32A13.75,13.75,0,1,1,46,44.84l-22.39.06a17.5,17.5,0,0,1,0-35Z" />
    <circle class="cls-4" cx="46.05" cy="31.09" r="13.75" transform="translate(3.72 67.08) rotate(-74.39)" />
    <line class="cls-5" x1="32.13" x2="32.13" y1="27.1" y2="37.23" />
    <polyline class="cls-5" points="33.3 25.79 32.13 27.26 30.95 25.79" />
    <polyline class="cls-5" points="30.95 38.55 32.13 37.08 33.3 38.55" />
    <line class="cls-5" x1="36.51" x2="27.74" y1="29.63" y2="34.7" />
    <polyline class="cls-5" points="38.24 30 36.38 29.71 37.06 27.96" />
    <polyline class="cls-5" points="26.01 34.34 27.87 34.62 27.19 36.38" />
    <line class="cls-5" x1="36.51" x2="27.74" y1="34.7" y2="29.63" />
    <polyline class="cls-5" points="37.06 36.38 36.38 34.62 38.24 34.34" />
    <polyline class="cls-5" points="27.19 27.96 27.87 29.71 26.01 30" />
</svg>